
Cover -



    	http://desibbrg.org/images/69810471325827547132.jpg
Screens -



 
http://desibbrg.net/imghost/show.php?img=430024_Nakli.Nawab.1962.1CD.Dvdrip.X264.AAC.RRG.DADA.DBBIANS.Comthumbs.jpg.html



Info -


General


Format                                   : Mp4 Video
File size                                : 676 MiB
Duration                                 : 2h 13mn
Overall bit rate                         : 709 Kbps

Video
Format                                   : AVC
Format/Info                              : Advanced Video Codec
Format profile                           : Main@L3.0
Format settings, CABAC                   : Yes
Format settings, ReFrames                : 3 frames
Codec ID                                 : 7
Duration                                 : 2h 13mn
Bit rate                                 : 573 Kbps
Width                                    : 640 pixels
Height                                   : 360 pixels
Display aspect ratio                     : 16:9
Frame rate mode                          : Constant
Frame rate                               : 25.000 fps
Color space                              : YUV
Chroma subsampling                       : 4:2:0
Bit depth                                : 8 bits
Scan type                                : Progressive
Bits/(Pixel*Frame)                       : 0.099
Stream size                              : 545 MiB (81%)

Audio
Format                                   : AAC
Format/Info                              : Advanced Audio Codec
Format profile                           : LC
Codec ID                                 : 10
Duration                                 : 2h 13mn
Bit rate                                 : 129 Kbps
Channel(s)                               : 2 channels
Channel positions                        : Front: L R
Sampling rate                            : 44.1 KHz
Compression mode                         : Lossy
Stream size                              : 123 MiB (18%)

 
http://www.imdb.com/title/tt0399394/

Naqli Nawab is a romantic cum drama based movie. The story starts with a pick pocket man Yusuf (Manoj Kumar) who was also a shayar. Two nawab brothers Bade nawab and Shouqat miya (Ashok kumar) and they had younger sister Shabnam who fell in love with Yusuf but because of her family status, she did not tell it to anyone. However, Shouqat discovered that Yusuf was his friend son who had lost in a fair many years back. Shouqat elated as he promised his friend that he will search his son Yusuf. Everything goes well and they fix up the marriage of Shabnam and Yusuf. The story brings twist when Yusuf, Shouqat and Bade Nawab were trapped in a murder mystery and how they get out of it. 


About this movie

    Genres:
Drama, Indian Cinema, Music
    Language:
Hindi
    Running time:
2:13:11

Banner
Zar Films

Release Date
January, 1, 1962
 
Genre
Romance
 
Language
Hindi

Music Company
Saregama-HMV

Star Cast
Manoj Kumar
Ashok Kumar
Maruti
K N Singh
Kamal Kapoor
Indira
Shammi
